<svg id="Layer_1" data-name="Layer 1" xmlns="http://www.w3.org/2000/svg" viewBox="0 0 410.73 163.13"><defs><style>.cls-1{fill:#3f3f3f;}.cls-2{fill:#0044d7;}.cls-3{fill:none;stroke:#0044d7;stroke-miterlimit:10;}</style></defs><title>madeby-klaus_logo</title><path class="cls-1" d="M67.32,57.59h3.17l5.16,8,5.16-8H84v17H81V62.39l-5.35,8h-.1l-5.3-7.94v12.1H67.32Z"/><path class="cls-1" d="M95.56,57.47h2.76l7.46,17.07h-3.15l-1.72-4.09h-8l-1.74,4.09h-3Zm4.26,10.34L96.9,61,94,67.81Z"/><path class="cls-1" d="M109.91,57.59h6.32c5.32,0,9,3.66,9,8.43v0c0,4.77-3.68,8.47-9,8.47h-6.32Zm3,2.72V71.83h3.35a5.53,5.53,0,0,0,5.88-5.71v-.05a5.56,5.56,0,0,0-5.88-5.76Z"/><path class="cls-1" d="M130.06,57.59h12.56v2.67H133v4.4h8.5v2.67H133v4.55h9.71v2.66H130.06Z"/><path class="cls-1" d="M111,85.85h7.61A6.08,6.08,0,0,1,123,87.36a3.75,3.75,0,0,1,1.14,2.8v0A4,4,0,0,1,121.72,94c2,.68,3.37,1.82,3.37,4.11v.05c0,3-2.5,4.65-6.27,4.65H111Zm10.2,4.8c0-1.33-1.07-2.16-3-2.16H113.9V93H118c1.91,0,3.2-.75,3.2-2.3Zm-2.55,4.86H113.9v4.65h4.94c2,0,3.27-.8,3.27-2.32v0C122.11,96.36,121,95.51,118.62,95.51Z"/><path class="cls-1" d="M133.93,96.12,127.2,85.85h3.54l4.72,7.49,4.79-7.49h3.42l-6.73,10.2v6.75h-3Z"/><path class="cls-2" d="M171.2,57.36h10V77.14L199.5,57.36h12L193.1,76.55l19.26,26.05h-12l-14-19.26-5.23,5.43V102.6h-10Z"/><path class="cls-2" d="M218.06,55.42h9.82V102.6h-9.82Z"/><path class="cls-2" d="M235.11,92.65v-.13c0-7.56,5.75-11,13.95-11a24.66,24.66,0,0,1,8.47,1.42v-.58c0-4.08-2.52-6.34-7.43-6.34a25.39,25.39,0,0,0-9.57,1.88l-2.45-7.5a30.55,30.55,0,0,1,13.44-2.78c5.36,0,9.24,1.42,11.7,3.88s3.74,6.4,3.74,11v20.1h-9.5V98.85A13.3,13.3,0,0,1,247,103.24C240.47,103.24,235.11,99.49,235.11,92.65Zm22.55-2.27V88.64a15.17,15.17,0,0,0-6.27-1.29c-4.2,0-6.78,1.68-6.78,4.78v.13c0,2.65,2.19,4.2,5.36,4.2C254.56,96.46,257.66,93.94,257.66,90.38Z"/><path class="cls-2" d="M275.52,90.38V68h9.82V87.28c0,4.65,2.2,7,5.94,7s6.14-2.39,6.14-7V68h9.83V102.6h-9.83V97.69c-2.26,2.9-5.17,5.55-10.14,5.55C279.85,103.24,275.52,98.33,275.52,90.38Z"/><path class="cls-2" d="M313.77,98l4.2-6.46c3.75,2.71,7.69,4.13,10.92,4.13,2.84,0,4.13-1,4.13-2.58V93c0-2.13-3.36-2.85-7.17-4-4.84-1.42-10.34-3.68-10.34-10.4v-.13c0-7,5.69-11,12.67-11a24,24,0,0,1,12.92,4l-3.75,6.78c-3.42-2-6.85-3.23-9.37-3.23s-3.62,1-3.62,2.39v.13c0,1.94,3.3,2.85,7.05,4.14,4.85,1.61,10.47,3.94,10.47,10.27v.13c0,7.69-5.75,11.18-13.25,11.18A24.24,24.24,0,0,1,313.77,98Z"/><rect class="cls-3" x="25.25" y="23.64" width="359.02" height="110.24"/></svg>